<?xml version="1.0" encoding="UTF-8"?>
<svg xmlns="http://www.w3.org/2000/svg" xmlns:xlink="http://www.w3.org/1999/xlink" width="2140px" height="2140px" viewBox="0 0 2140 2140" version="1.1">
<g id="surface1">
<path style=" stroke:none;fill-rule:nonzero;fill:rgb(87.45098%,79.215686%,49.019608%);fill-opacity:1;" d="M 37.210938 37.210938 L 2098.449219 37.210938 L 2098.449219 2098.449219 L 37.210938 2098.449219 Z M 37.210938 37.210938 "/>
<path style=" stroke:none;fill-rule:nonzero;fill:rgb(2.745098%,30.588235%,16.470588%);fill-opacity:1;" d="M 0 1070 L 0 2140 L 2140 2140 L 2140 0 L 0 0 Z M 1010.554688 103.433594 L 1065.246094 131.964844 L 1129.445312 102.246094 C 1247.144531 47.554688 1377.921875 72.523438 1473.035156 167.632812 C 1538.421875 234.210938 1562.199219 299.601562 1563.390625 416.109375 C 1563.390625 471.988281 1559.820312 531.433594 1553.878906 550.457031 C 1545.554688 581.367188 1546.746094 582.554688 1577.65625 574.234375 C 1641.855469 556.398438 1797.601562 563.535156 1859.421875 587.3125 C 2029.433594 652.699219 2109.089844 848.867188 2028.246094 1006.988281 L 1997.332031 1067.621094 L 2029.433594 1124.6875 C 2106.710938 1263.789062 2041.320312 1456.390625 1890.332031 1533.667969 C 1821.378906 1569.332031 1710.8125 1584.789062 1632.34375 1569.332031 C 1595.488281 1563.390625 1563.390625 1557.445312 1562.199219 1557.445312 C 1561.011719 1557.445312 1563.390625 1605 1566.957031 1662.066406 C 1575.277344 1814.246094 1551.5 1889.144531 1468.277344 1969.988281 C 1362.464844 2072.234375 1241.199219 2091.253906 1117.554688 2024.679688 L 1062.867188 1996.144531 L 1005.800781 2028.246094 C 890.476562 2092.445312 743.054688 2063.910156 646.753906 1959.289062 C 568.289062 1874.878906 539.753906 1755.988281 562.34375 1608.566406 L 570.667969 1546.746094 L 526.679688 1559.820312 C 460.101562 1577.65625 324.566406 1565.765625 252.042969 1533.667969 C 93.921875 1464.710938 19.023438 1266.167969 98.679688 1123.5 L 129.589844 1068.8125 L 98.679688 1006.988281 C 21.398438 854.8125 92.734375 663.398438 252.042969 594.445312 C 324.566406 562.34375 460.101562 550.457031 526.679688 568.289062 L 570.667969 580.179688 L 561.15625 531.433594 C 549.265625 462.476562 552.832031 360.234375 568.289062 301.976562 C 624.167969 105.8125 836.976562 9.511719 1010.554688 103.433594 Z M 1010.554688 103.433594 "/>
<path style=" stroke:none;fill-rule:nonzero;fill:rgb(2.745098%,30.588235%,16.470588%);fill-opacity:1;" d="M 813.199219 105.8125 C 644.378906 148.609375 555.210938 326.945312 599.199219 533.8125 C 609.898438 582.554688 615.84375 624.167969 614.65625 625.355469 C 612.277344 627.734375 578.988281 620.601562 540.945312 611.089844 C 452.964844 587.3125 332.890625 594.445312 267.5 625.355469 C 149.800781 681.234375 79.65625 812.011719 107 926.144531 C 114.132812 958.246094 133.15625 1002.234375 147.421875 1023.632812 L 174.765625 1064.054688 L 139.101562 1129.445312 C 74.898438 1241.199219 93.921875 1356.523438 192.601562 1451.632812 C 273.445312 1530.101562 413.734375 1555.066406 558.777344 1515.832031 C 594.445312 1506.320312 625.355469 1498 625.355469 1498 C 626.542969 1498 617.035156 1539.609375 603.957031 1589.542969 C 578.988281 1695.355469 583.746094 1770.253906 619.410156 1854.667969 C 688.367188 2011.601562 854.8125 2071.042969 999.855469 1989.011719 L 1066.433594 1952.15625 L 1122.3125 1989.011719 C 1171.054688 2019.921875 1191.265625 2025.867188 1253.089844 2025.867188 C 1371.976562 2025.867188 1465.898438 1958.101562 1517.023438 1836.832031 C 1540.800781 1778.578125 1540.800781 1644.234375 1517.023438 1566.957031 C 1507.511719 1534.855469 1503.945312 1509.890625 1507.511719 1509.890625 C 1512.265625 1509.890625 1555.066406 1518.210938 1603.8125 1527.722656 C 1657.3125 1539.609375 1713.1875 1543.179688 1746.476562 1538.421875 C 1984.253906 1505.132812 2100.765625 1292.320312 1978.3125 1111.609375 L 1948.589844 1067.621094 L 1978.3125 1023.632812 C 2044.890625 926.144531 2043.699219 816.765625 1973.554688 720.464844 C 1889.144531 606.332031 1747.667969 568.289062 1576.464844 612.277344 C 1537.234375 622.976562 1505.132812 628.921875 1502.753906 626.542969 C 1500.378906 625.355469 1507.511719 590.878906 1517.023438 552.832031 C 1541.988281 458.910156 1534.855469 331.699219 1500.378906 266.3125 C 1470.65625 206.867188 1391 136.722656 1333.933594 117.699219 C 1269.734375 96.300781 1174.621094 109.378906 1116.367188 148.609375 C 1075.945312 174.765625 1061.679688 178.332031 1047.410156 167.632812 C 967.753906 110.566406 882.15625 87.976562 813.199219 105.8125 Z M 928.523438 130.777344 C 952.300781 137.910156 992.722656 156.933594 1017.6875 173.578125 C 1053.355469 197.355469 1067.621094 202.109375 1081.890625 191.410156 C 1178.1875 122.457031 1276.867188 108.1875 1363.65625 152.179688 C 1495.621094 219.945312 1545.554688 379.253906 1480.167969 521.921875 C 1457.578125 569.476562 1411.210938 622.976562 1289.945312 740.679688 L 1128.253906 896.421875 L 1173.433594 941.601562 C 1197.210938 966.566406 1222.179688 986.777344 1228.121094 986.777344 C 1234.066406 986.777344 1307.777344 916.632812 1392.1875 832.222656 C 1503.945312 718.089844 1562.199219 669.34375 1607.378906 647.945312 C 1722.699219 594.445312 1839.210938 613.464844 1927.1875 701.445312 C 2019.921875 794.179688 2029.433594 905.933594 1955.722656 1015.3125 C 1939.078125 1039.089844 1926 1061.679688 1926 1064.054688 C 1926 1066.433594 1939.078125 1089.023438 1955.722656 1112.800781 C 2023.488281 1212.667969 2018.734375 1323.234375 1942.644531 1412.398438 C 1887.957031 1476.601562 1816.621094 1509.890625 1734.589844 1509.890625 C 1625.210938 1509.890625 1568.144531 1473.035156 1386.246094 1289.945312 L 1226.933594 1128.253906 L 1178.1875 1179.378906 L 1129.445312 1230.5 L 1291.132812 1388.621094 C 1410.023438 1503.945312 1458.765625 1562.199219 1480.167969 1608.566406 C 1546.746094 1750.042969 1496.8125 1906.976562 1362.464844 1975.933594 C 1276.867188 2021.109375 1180.566406 2006.84375 1081.890625 1936.699219 C 1067.621094 1926 1053.355469 1930.753906 1017.6875 1954.535156 C 914.253906 2024.679688 804.878906 2019.921875 713.332031 1940.265625 C 647.945312 1885.578125 619.410156 1820.1875 618.222656 1732.210938 C 618.222656 1622.832031 655.078125 1564.578125 840.542969 1385.054688 L 999.855469 1230.5 L 952.300781 1184.132812 L 905.933594 1138.957031 L 865.511719 1168.679688 C 844.109375 1185.320312 772.777344 1254.277344 707.390625 1322.042969 C 567.101562 1468.277344 495.765625 1509.890625 393.523438 1509.890625 C 307.921875 1508.699219 242.535156 1478.976562 186.65625 1413.589844 C 101.054688 1313.722656 102.246094 1206.722656 191.410156 1081.890625 C 202.109375 1067.621094 198.542969 1053.355469 174.765625 1018.878906 C 124.832031 945.167969 114.132812 897.609375 129.589844 826.277344 C 156.933594 706.199219 268.6875 618.222656 394.710938 618.222656 C 498.144531 618.222656 563.535156 657.457031 703.820312 802.5 C 771.589844 871.457031 844.109375 942.789062 865.511719 959.433594 L 905.933594 989.15625 L 952.300781 943.976562 L 999.855469 897.609375 L 839.355469 741.867188 C 655.078125 562.34375 618.222656 504.089844 618.222656 395.898438 C 618.222656 311.488281 650.320312 240.15625 715.710938 185.464844 C 782.289062 128.398438 853.621094 109.378906 928.523438 130.777344 Z M 928.523438 130.777344 "/>
<path style=" stroke:none;fill-rule:nonzero;fill:rgb(2.745098%,30.588235%,16.470588%);fill-opacity:1;" d="M 784.667969 256.800781 C 713.332031 317.433594 695.5 392.332031 733.542969 473.179688 C 744.246094 498.144531 822.710938 584.933594 908.3125 668.15625 C 992.722656 752.566406 1062.867188 820.332031 1062.867188 820.332031 C 1064.054688 820.332031 1131.820312 754.945312 1213.855469 674.101562 C 1406.457031 488.632812 1439.746094 426.8125 1398.132812 329.320312 C 1373.167969 267.5 1314.910156 225.890625 1255.464844 225.890625 C 1201.964844 225.890625 1173.433594 241.34375 1096.15625 313.867188 C 1060.488281 347.15625 1055.734375 348.34375 1045.035156 330.511719 C 1039.089844 318.621094 1008.179688 290.089844 978.457031 267.5 C 908.3125 214 840.542969 210.433594 784.667969 256.800781 Z M 784.667969 256.800781 "/>
<path style=" stroke:none;fill-rule:nonzero;fill:rgb(2.745098%,30.588235%,16.470588%);fill-opacity:1;" d="M 315.054688 735.921875 C 241.34375 781.101562 209.246094 844.109375 227.078125 909.5 C 233.023438 928.523438 260.367188 971.320312 288.898438 1004.609375 L 341.210938 1064.054688 L 290.089844 1121.121094 C 208.054688 1212.667969 200.921875 1284 265.121094 1352.957031 C 325.753906 1418.34375 397.089844 1430.234375 476.746094 1391 C 502.898438 1376.734375 592.066406 1298.265625 675.289062 1215.042969 L 826.277344 1062.867188 L 671.722656 910.6875 C 586.121094 826.277344 498.144531 747.8125 475.554688 735.921875 C 423.246094 707.390625 360.234375 707.390625 315.054688 735.921875 Z M 315.054688 735.921875 "/>
<path style=" stroke:none;fill-rule:nonzero;fill:rgb(2.745098%,30.588235%,16.470588%);fill-opacity:1;" d="M 1652.554688 734.734375 C 1629.964844 745.433594 1541.988281 823.898438 1456.390625 909.5 L 1301.832031 1064.054688 L 1464.710938 1226.933594 C 1588.355469 1350.578125 1639.476562 1393.378906 1675.144531 1404.078125 C 1744.101562 1424.289062 1803.542969 1408.832031 1857.042969 1355.332031 C 1896.277344 1317.289062 1902.222656 1303.023438 1902.222656 1257.84375 C 1902.222656 1201.964844 1887.957031 1174.621094 1814.246094 1096.15625 C 1780.957031 1060.488281 1779.765625 1055.734375 1797.601562 1045.035156 C 1809.488281 1039.089844 1838.023438 1008.179688 1860.609375 978.457031 C 1915.300781 907.121094 1917.679688 840.542969 1870.121094 783.476562 C 1811.867188 715.710938 1729.832031 696.6875 1652.554688 734.734375 Z M 1652.554688 734.734375 "/>
<path style=" stroke:none;fill-rule:nonzero;fill:rgb(2.745098%,30.588235%,16.470588%);fill-opacity:1;" d="M 1018.878906 1020.066406 L 974.890625 1065.246094 L 1020.066406 1109.234375 L 1065.246094 1153.222656 L 1109.234375 1108.042969 L 1153.222656 1062.867188 L 1108.042969 1018.878906 L 1062.867188 974.890625 Z M 1018.878906 1020.066406 "/>
<path style=" stroke:none;fill-rule:nonzero;fill:rgb(2.745098%,30.588235%,16.470588%);fill-opacity:1;" d="M 899.988281 1463.523438 C 714.523438 1650.179688 683.609375 1714.378906 731.167969 1805.921875 C 784.667969 1909.355469 885.722656 1931.945312 978.457031 1860.609375 C 1008.179688 1838.023438 1039.089844 1809.488281 1045.035156 1797.601562 C 1055.734375 1779.765625 1061.679688 1782.144531 1102.101562 1820.1875 C 1172.246094 1886.765625 1201.964844 1902.222656 1256.65625 1902.222656 C 1295.890625 1902.222656 1316.101562 1893.898438 1348.199219 1866.554688 C 1425.476562 1797.601562 1433.800781 1704.867188 1368.410156 1614.511719 C 1336.3125 1569.332031 1066.433594 1305.398438 1055.734375 1308.964844 C 1053.355469 1310.15625 983.210938 1379.109375 899.988281 1463.523438 Z M 899.988281 1463.523438 "/>
</g>
</svg>
